# xmcd
#
# Track frame offsets: 
#        180
#        13568
#        26364
#        40800
#        52996
#        65784
#        85846
#        100347
#        115983
#        130939
#        144184
#        156544
#
# Disc length: 2289 seconds
#
# Revision: 0
# Processed by: cddbd v1.5.2PL0 Copyright (c) Steve Scherf et al.
# Submitted via: ExactAudioCopyFreeDBPlugin 1.0
#
DISCID=9c08ef0c
DTITLE=ก็อต จักรพรรณ์ อาบครบุรี - หัวแก้วหัวแหวน 7
DYEAR=1900
DGENRE=Pop
TTITLE0=ปูไข่ไก่หลง
TTITLE1=กินอะไรถึงสวย
TTITLE2=พี่มีแต่ให้
TTITLE3=จักรยานคนจน
TTITLE4=ใช่แล้วซิ
TTITLE5=ฉันทนาที่รัก
TTITLE6=หนุ่มนารอนาง
TTITLE7=ตัวไกลใจเหงา
TTITLE8=จองไว้ก่อน
TTITLE9=วันนี้สวยกว่าเมื่อวาน
TTITLE10=ชุมทางเขาชุมทอง
TTITLE11=รักเธอเท่าฟ้า
EXTD=
EXTT0=
EXTT1=
EXTT2=
EXTT3=
EXTT4=
EXTT5=
EXTT6=
EXTT7=
EXTT8=
EXTT9=
EXTT10=
EXTT11=
PLAYORDER=
